<?xml version="1.0" encoding="UTF-8" standalone="no"?>
<!-- Created with Inkscape (http://www.inkscape.org/) -->
<svg id="svg3341" xmlns="http://www.w3.org/2000/svg" height="24" width="24" version="1.0">
 <g id="layer1">
  <path id="path3339" style="opacity:.6;fill-rule:evenodd;fill:#eae3d0" d="m12 2c-5.515 0-10 4.485-10 10s4.485 10 10 10 10-4.485 10-10-4.485-10-10-10zm-2.125 5.5312c-0.0098 0.0836-0.0938 0.1328-0.0938 0.2188 0 0.2991 0.2052 0.5169 0.3128 0.7812l-1.3752-0.2187c0.3473-0.3086 0.7316-0.5788 1.1562-0.7813zm4.437 0.125c0.347 0.1853 0.678 0.3975 0.969 0.6563l-1.25 0.1875c0.101-0.2568 0.313-0.4612 0.313-0.75 0-0.0356-0.03-0.0585-0.032-0.0938zm-7.062 3.1558l2.4062 0.75-0.0312 1.5-0.8125 2.469c-1.0229-0.902-1.8125-2.057-1.8125-3.531 0-0.424 0.1516-0.795 0.25-1.188zm9.5 0.032c0.094 0.383 0.25 0.743 0.25 1.156 0 1.504-0.704 2.806-1.75 3.719l-0.844-2.657-0.031-1.374 2.375-0.844zm-4.75 4.812l0.594 1.219c-0.205 0.025-0.382 0.125-0.594 0.125-0.209 0-0.391-0.126-0.594-0.156l0.594-1.188z"/>
  <path id="path3157" style="fill-rule:evenodd;fill:#3a3935" d="m12 3c-4.968 0-9 4.032-9 9s4.032 9 9 9 9-4.032 9-9-4.032-9-9-9zm0 3c3.312 0 6 2.688 6 6s-2.688 6-6 6-6-2.688-6-6 2.688-6 6-6zm0.062 0.5c-0.713 0-1.281 0.5547-1.281 1.25s0.568 1.2812 1.281 1.2812c0.714 0 1.282-0.5859 1.282-1.2812s-0.568-1.25-1.282-1.25zm-4.6558 2.5938c-0.0698-0.0086-0.1241 0.0014-0.1874 0.0312-0.1268 0.0596-0.2171 0.1782-0.2188 0.3125-0.0016 0.1344 0.0936 0.25 0.2188 0.3125l3.4372 1.062-0.031 2.469-1.2188 3.657c-0.1168 0.166-0.0815 0.357 0.0938 0.468s0.4456 0.073 0.562-0.094l1.938-3.937 1.938 3.937c0.103 0.173 0.318 0.224 0.5 0.126 0.181-0.099 0.26-0.297 0.156-0.469l-1.188-3.688-0.062-2.281 3.5-1.25c0.141-0.0939 0.186-0.2846 0.125-0.4375s-0.236-0.2373-0.407-0.2187c-0.059 0.0094-0.107 0.0278-0.156 0.0624l-4.406 0.6876-4.375-0.6876c-0.0567-0.0401-0.1489-0.0539-0.2188-0.0624z"/>
 </g>
</svg>
