<?xml version="1.0" encoding="UTF-8" standalone="no"?>
<!-- Created with Inkscape (http://www.inkscape.org/) -->
<svg id="svg2407" xmlns="http://www.w3.org/2000/svg" height="24" width="24" version="1.0">
 <g id="layer1">
  <path id="path2405" style="opacity:.6;fill-rule:evenodd;fill:#eae3d0" d="m12.062 1c-0.854 0-1.562 0.7084-1.562 1.5625v7.4995c0 0.855 0.708 1.563 1.562 1.563 0.855 0 1.563-0.708 1.563-1.563v-7.4995c0-0.8541-0.708-1.5625-1.563-1.5625zm4.219 2.5625c-0.118 0.0174-0.227 0.0721-0.312 0.1563-0.82 0.009-1.634 0.3718-1.938 1.1874-0.278 0.7469 0.033 1.4814 0.531 2.0313 0.006 0.0063-0.005 0.025 0 0.0313 0.016 0.0441 0.037 0.0861 0.063 0.125 0.042 0.088 0.107 0.1634 0.187 0.2187 0.011 0.0108 0.021 0.0212 0.032 0.0313 0.129 0.0781 0.217 0.143 0.281 0.1874-0.003-0.002 0.038 0.0358 0.156 0.125 0.048 0.0359 0.1 0.0739 0.125 0.0938 0.075 0.0598 0.171 0.1486 0.282 0.25 0 0.0002 0.01 0.0136 0.062 0.0625 0.094 0.0894 0.177 0.1709 0.25 0.25 0.087 0.0936 0.119 0.1492 0.125 0.1563 0.092 0.1074 0.134 0.1112 0.094 0.0624 0.038 0.046 0.105 0.1151 0.156 0.1876 0.003 0.01 0 0.0311 0 0.0312 0.024 0.0344 0.036 0.0568 0.063 0.0938 0.004 0.0085-0.001 0.0311 0 0.0312 0.108 0.1535 0.221 0.2726 0.281 0.375 0.028 0.0488 0.059 0.1522 0.125 0.2812 0.05 0.0978 0.094 0.1501 0.125 0.2188 0.041 0.0913 0.07 0.1421 0.062 0.125 0.053 0.1247 0.084 0.254 0.125 0.375 0.037 0.109 0.088 0.265 0.125 0.406 0.051 0.194 0.068 0.334 0.094 0.5 0.028 0.179 0.053 0.354 0.063 0.532 0.009 0.171 0.007 0.348 0 0.531-0.003 0.055-0.02 0.155-0.032 0.281-0.008 0.093-0.02 0.173-0.031 0.25-0.024 0.17-0.022 0.183 0 0.031-0.024 0.16-0.027 0.321-0.063 0.469-0.007 0.033-0.036 0.092-0.062 0.188-0.038 0.137-0.044 0.199-0.031 0.156-0.029 0.094-0.061 0.158-0.094 0.25 0.018-0.05-0.028-0.007-0.094 0.156-0.069 0.172-0.094 0.313-0.125 0.375-0.023 0.03-0.04 0.018-0.062 0.063-0.083 0.163-0.149 0.324-0.219 0.437-0.075 0.12-0.163 0.235-0.219 0.313-0.013 0.014-0.017 0.012-0.031 0.031-0.071 0.096-0.138 0.19-0.187 0.25-0.055 0.065-0.111 0.137-0.157 0.187-0.097 0.108-0.162 0.162-0.187 0.188-0.026 0.025-0.08 0.09-0.188 0.187-0.063 0.058-0.116 0.098-0.187 0.157-0.113 0.092-0.203 0.162-0.281 0.218-0.071 0.051-0.125 0.094-0.126 0.094-0.077 0.053-0.2 0.136-0.343 0.219-0.101 0.058-0.133 0.052-0.094 0.031-0.148 0.082-0.246 0.174-0.344 0.219 0.03-0.014-0.042-0.029-0.187 0.031-0.108 0.045-0.2 0.096-0.282 0.125-0.015 0.004-0.015-0.006-0.031 0-0.165 0.057-0.299 0.128-0.406 0.156h-0.031c-0.128 0.034-0.253 0.031-0.438 0.063-0.194 0.033-0.221 0.05-0.094 0.031-0.058 0.009-0.164 0.02-0.281 0.031-0.271 0.028-0.492 0.043-0.75 0.032-0.073-0.004-0.098-0.002-0.062 0 0.026 0.001-0.044-0.019-0.188-0.032-0.161-0.014-0.264-0.019-0.343-0.031-0.156-0.024-0.338-0.031-0.469-0.063 0.038 0.01 0.043-0.003-0.063-0.031-0.056-0.014-0.117-0.029-0.125-0.031-0.126-0.036-0.27-0.106-0.406-0.156-0.018-0.008-0.01 0.008-0.031 0-0.026-0.013 0.002-0.019-0.032-0.032-0.2052-0.078-0.3377-0.107-0.437-0.156-0.0301-0.023-0.0179-0.04-0.0625-0.062-0.1405-0.071-0.2696-0.127-0.375-0.188-0.0176-0.01-0.0463-0.021-0.0625-0.031-0.0119-0.009 0.0144-0.022 0-0.031-0.1686-0.107-0.3206-0.191-0.4375-0.282-0.1095-0.084-0.1923-0.137-0.25-0.187-0.1097-0.096-0.1704-0.135-0.125-0.094-0.0415-0.038-0.0835-0.114-0.1563-0.187-0.0729-0.073-0.1494-0.115-0.1874-0.156-0.0685-0.075-0.16-0.218-0.2813-0.376-0.0905-0.116-0.175-0.268-0.2813-0.437-0.0106-0.017-0.022 0.013-0.0312 0-0.0349-0.056-0.0156-0.047-0.0312-0.063-0.0806-0.132-0.1514-0.269-0.2188-0.406 0.0072 0.015-0.0119-0.014-0.0625-0.125-0.0421-0.092-0.068-0.217-0.0937-0.281-0.0535-0.133-0.0787-0.137-0.0626-0.094-0.0058-0.031 0.0131-0.026 0-0.062-0.0147-0.041-0.0429-0.128-0.0624-0.188-0.0499-0.153-0.1071-0.242-0.125-0.312-0.0341-0.133-0.0421-0.264-0.0626-0.375-0.0249-0.137-0.0508-0.244-0.0624-0.344 0.0016 0.014 0.0125-0.087 0-0.281-0.0109-0.167-0.031-0.248-0.0313-0.282-0.001-0.122 0.0175-0.321 0.0313-0.5 0.0112-0.146 0.0371-0.281 0.0624-0.437 0.0337-0.207 0.0278-0.336 0.0626-0.469-0.0096 0.037 0.0056-0.001 0.0312-0.094 0.0244-0.087 0.098-0.244 0.1562-0.406 0.0102-0.028-0.0047-0.033 0-0.062-0.0129 0.034 0.0313-0.005 0.0938-0.1565 0.0593-0.1439 0.0488-0.2265 0.0312-0.1875 0.0509-0.1129 0.1247-0.2273 0.1876-0.3438 0.0458-0.0852 0.0866-0.169 0.1562-0.2812 0.0473-0.0763 0.1282-0.165 0.1875-0.25 0.0492-0.0698 0.0979-0.1444 0.1563-0.2188 0.0416-0.0537 0.0843-0.1074 0.125-0.1562 0.1109-0.1316 0.1011-0.1424 0.0312-0.0625 0.0503-0.0574 0.1728-0.1412 0.2812-0.25 0.1013-0.1015 0.1914-0.1783 0.3126-0.2813 0.1069-0.0908 0.1836-0.1919 0.2187-0.2187 0.1528-0.118 0.1806-0.1513 0.0625-0.0625 0.0655-0.0488 0.1399-0.0837 0.25-0.1562 0.2086-0.1387 0.2257-0.1675 0.0625-0.0626-0.0429 0.0274-0.0282 0.0112 0.0937-0.0624 0.0215-0.0092 0.0424-0.0196 0.0626-0.0313 0.3864-0.3189 0.6537-0.7266 0.75-1.125 0.0962-0.3984 0.0622-0.7429 0.0312-1.125-0.0029-0.0533-0.0134-0.1059-0.0312-0.1563-0.323-0.8664-1.1896-1.271-2.0626-1.2187-0.0608-0.0356-0.1242-0.0827-0.1874-0.0937-0.124-0.0217-0.1233 0.0429-0.1876 0.0624-0.0497 0.0152-0.1295-0.0171-0.1562 0-0.0108 0.0101-0.0212 0.0205-0.0312 0.0313-0.0046 0.0029-0.0273-0.0023-0.0313 0-0.055 0.0322-0.0954 0.0323-0.0937 0.0313-0.0933 0.0409-0.1728 0.1079-0.25 0.1562-0.5705 0.3551-1.1124 0.7532-1.5938 1.2188-0.4041 0.3908-0.7975 0.828-1.125 1.2812-0.1436 0.1987-0.2331 0.3839-0.3438 0.5625-0.0957 0.1527-0.1737 0.2646-0.2187 0.3437-0.0529 0.094-0.1309 0.2315-0.2187 0.4063-0.0284 0.0561-0.0594 0.1155-0.0938 0.1875-0.1169 0.2457-0.2269 0.4917-0.3125 0.7188-0.0032 0.0083 0.0031 0.0229 0 0.0312-0.0124 0.026-0.0184-0.0032-0.0313 0.0312-0.0001 0.0003-0.0311 0.0934-0.0312 0.0938-0.0034 0.0127 0 0.0314 0 0.0312-0.0015 0.012 0.0005 0.0244 0 0.0313-0.0015 0.0115 0.0005 0.0249 0 0.0313-0.0427 0.132-0.0901 0.2604-0.125 0.375-0.0931 0.3063-0.2142 0.6513-0.2812 1.0002-0.0279 0.144-0.0248 0.209-0.0313 0.25-0.0181 0.112-0.0227 0.217-0.0313 0.281-0.025 0.189-0.0478 0.38-0.0624 0.594-0.015 0.217-0.0326 0.437-0.0313 0.687 0.0012 0.234 0.0155 0.447 0.0313 0.657 0.0088 0.118 0.0201 0.242 0.0312 0.343 0.018 0.164 0.0304 0.34 0.0625 0.531 0.021 0.126 0.038 0.163 0.0313 0.126 0.0375 0.205 0.1098 0.406 0.1562 0.593 0.0381 0.154 0.0596 0.322 0.125 0.531 0.0528 0.17 0.1081 0.338 0.1562 0.469 0.0025 0.011-0.0034 0.022 0 0.031 0.0552 0.148 0.1073 0.27 0.125 0.313 0.0495 0.121 0.1174 0.255 0.1876 0.406 0.0912 0.197 0.1768 0.333 0.25 0.469 0.0901 0.168 0.197 0.346 0.3124 0.531-0.0368-0.059-0.0352-0.011 0.0313 0.094 0.1173 0.185 0.249 0.36 0.375 0.531 0.1429 0.195 0.271 0.372 0.4063 0.532-0.0544-0.065-0.0169-0.034 0.0937 0.093 0.067 0.077 0.089 0.092 0.0625 0.063 0.1452 0.163 0.2672 0.298 0.375 0.406 0.1077 0.108 0.2432 0.23 0.4062 0.375 0.0869 0.077 0.1323 0.136 0.1563 0.156 0.1624 0.138 0.3471 0.281 0.5625 0.438 0.0109 0.008 0.0759 0.079 0.1875 0.156 0.1792 0.124 0.3643 0.226 0.5625 0.344 0.1382 0.081 0.2235 0.141 0.25 0.156 0.2003 0.111 0.3954 0.189 0.5938 0.281 0.151 0.07 0.2854 0.138 0.4062 0.188 0.0435 0.018 0.1646 0.07 0.3125 0.125 0.0093 0.003 0.0203-0.003 0.0313 0 0.1922 0.07 0.3805 0.11 0.5312 0.156 0.1387 0.042 0.3125 0.103 0.5312 0.156 0.2908 0.071 0.5538 0.146 0.8438 0.188 0.031 0.004 0.118 0.018 0.219 0.031 0.25 0.031 0.492 0.052 0.75 0.062 0.272 0.012 0.541 0.012 0.812 0 0.258-0.01 0.5-0.031 0.75-0.062 0.129-0.016 0.206-0.034 0.188-0.031-0.12 0.017-0.082 0.032 0.125 0 0.271-0.042 0.532-0.127 0.781-0.188 0.218-0.053 0.393-0.114 0.531-0.156 0.167-0.051 0.334-0.095 0.5-0.156 0.191-0.07 0.337-0.163 0.469-0.219 0.019-0.008 0.105-0.027 0.25-0.094 0.238-0.109 0.505-0.204 0.75-0.344-0.028 0.016-0.011-0.019 0.062-0.062 0.232-0.134 0.423-0.257 0.594-0.375 0.073-0.05 0.187-0.125 0.313-0.219 0.044-0.032 0.075-0.055 0.125-0.094 0.205-0.158 0.38-0.332 0.531-0.468 0.02-0.018 0.086-0.061 0.187-0.156 0.061-0.058 0.127-0.096 0.157-0.126 0.127-0.125 0.253-0.266 0.406-0.437 0.122-0.136 0.205-0.257 0.25-0.313 0.123-0.148 0.205-0.258 0.313-0.406 0.049-0.067 0.1-0.134 0.093-0.125-0.081 0.115-0.04 0.101 0.094-0.093 0.124-0.18 0.226-0.365 0.344-0.563 0.033-0.057 0.02-0.061 0.031-0.094 0.054-0.093 0.067-0.111 0.062-0.093 0.079-0.134 0.167-0.27 0.25-0.438 0.006-0.012 0.017-0.031 0.032-0.062 0.135-0.279 0.27-0.594 0.375-0.876 0.093-0.248 0.151-0.483 0.219-0.718 0.012-0.028 0.022-0.03 0.031-0.063 0.004-0.016-0.003-0.015 0-0.031 0.004-0.017-0.003-0.015 0-0.031 0.036-0.132 0.086-0.292 0.125-0.469 0.042-0.196 0.097-0.382 0.125-0.562 0.029-0.193 0.018-0.221 0-0.094 0.018-0.125 0.045-0.286 0.062-0.469 0.014-0.15 0.025-0.311 0.031-0.469 0.003-0.061 0.001-0.07 0-0.062 0.008-0.228 0.009-0.491 0-0.719 0-0.005 0.006-0.05 0-0.156-0.003-0.065-0.02-0.056-0.031-0.094-0.003-0.052 0.007-0.037 0-0.063-0.011-0.024-0.028-0.087-0.031-0.093-0.014-0.16-0.011-0.317-0.031-0.469 0.009 0.073 0.033-0.004 0-0.219-0.041-0.26-0.128-0.483-0.188-0.7185-0.001 0.0119 0.01 0.0042-0.031-0.1563-0.002-0.0323 0.017-0.028 0-0.0937-0.055-0.2094-0.127-0.3628-0.188-0.5313 0-0.0057 0.001-0.0234 0-0.0312 0-0.0063 0.001-0.0229 0-0.0312-0.001-0.0066 0.004-0.0186 0-0.0313-0.003-0.0227-0.031-0.0935-0.031-0.0937-0.014-0.0417-0.028-0.0963-0.062-0.1876-0.069-0.1848-0.159-0.3305-0.219-0.4687-0.033-0.0756-0.046-0.0964-0.031-0.0625-0.006-0.0154 0.007-0.0156 0-0.0312-0.088-0.195-0.169-0.3405-0.219-0.4376-0.086-0.1688-0.195-0.3655-0.312-0.5624-0.127-0.212-0.23-0.4409-0.407-0.6876-0.03-0.0423-0.018-0.0159-0.031-0.0312-0.04-0.0552-0.024-0.0239-0.031-0.0312-0.002-0.0003 0-0.0328 0-0.0313-0.194-0.2657-0.366-0.4382-0.5-0.5937-0.165-0.1902-0.368-0.4064-0.594-0.625-0.217-0.2102-0.432-0.3751-0.625-0.5313-0.282-0.2291-0.578-0.464-0.938-0.6875-0.01-0.0003-0.02-0.0003-0.031 0-0.029-0.0239-0.06-0.0449-0.093-0.0625-0.021-0.0117-0.042-0.0221-0.063-0.0313-0.033-0.0167-0.059-0.0473-0.094-0.0624 0.087 0.0498 0.055 0.0058-0.125-0.0938-0.114-0.064-0.246-0.0861-0.375-0.0625z"/>
  <path id="path2404" style="fill-rule:evenodd;fill:#3a3935" d="m12.052 1.5594c-0.554 0-1.001 0.4463-1.001 1.0006v7.504c0 0.554 0.447 1.001 1.001 1.001s1.001-0.447 1.001-1.001v-7.504c0-0.5543-0.447-1.0006-1.001-1.0006zm-4.5493 2.6577c-0.097 0.0362-0.1812 0.0879-0.2658 0.1407-0.0001-0.0001 0-0.0156 0-0.0156-0.5418 0.3373-1.0371 0.7391-1.4851 1.1725-0.3817 0.3691-0.724 0.7621-1.0318 1.1881-0.1262 0.1745-0.2465 0.3489-0.3596 0.5315-0.0671 0.1071-0.1247 0.2177-0.1876 0.3283-0.07 0.1242-0.1393 0.248-0.2032 0.3752-0.03 0.0593-0.0651 0.1119-0.0938 0.172-0.1083 0.2274-0.2081 0.4678-0.2971 0.7035-0.0041 0.0109-0.0115 0.0203-0.0156 0.0313-0.0018 0.0047 0.0017 0.0109 0 0.0156-0.0634 0.1706-0.119 0.3416-0.172 0.5159-0.0929 0.3057-0.1753 0.6146-0.2345 0.9219-0.0169 0.088-0.0326 0.178-0.0469 0.266-0.0134 0.083-0.0202 0.167-0.0313 0.25-0.025 0.189-0.0494 0.372-0.0625 0.563-0.0152 0.221-0.0167 0.437-0.0156 0.657 0.001 0.21 0.0156 0.417 0.0312 0.625 0.0078 0.103 0.0043 0.21 0.0157 0.313 0.0185 0.168 0.0502 0.334 0.0781 0.5 0.007 0.041 0.0082 0.084 0.0157 0.125 0.0339 0.186 0.0797 0.364 0.125 0.547 0.043 0.174 0.087 0.344 0.1408 0.516 0.0441 0.142 0.0896 0.283 0.1407 0.422 0.0057 0.016 0.0098 0.032 0.0156 0.047 0.0334 0.09 0.0734 0.178 0.1094 0.266 0.0534 0.13 0.1126 0.263 0.172 0.391 0.0739 0.159 0.1523 0.316 0.2345 0.469 0.0912 0.17 0.1794 0.336 0.2814 0.5 0.0137 0.022 0.033 0.041 0.0469 0.063 0.109 0.171 0.2233 0.336 0.3439 0.5 0.1256 0.171 0.2546 0.34 0.3909 0.5 0.026 0.031 0.0516 0.064 0.0781 0.094 0.0192 0.022 0.0432 0.041 0.0626 0.062 0.116 0.131 0.2367 0.253 0.3595 0.376 0.1227 0.123 0.2449 0.243 0.3752 0.359 0.0525 0.047 0.1029 0.096 0.1564 0.141 0.1706 0.145 0.3488 0.289 0.5315 0.422 0.0574 0.042 0.1136 0.085 0.172 0.125 0.1725 0.119 0.3491 0.236 0.5315 0.344 0.0768 0.045 0.1564 0.082 0.2345 0.125 0.1834 0.101 0.3703 0.192 0.5628 0.281 0.1278 0.06 0.2604 0.119 0.3908 0.172 0.0881 0.036 0.176 0.076 0.2658 0.11 0.0156 0.006 0.0312 0.01 0.0469 0.016 0.1593 0.058 0.3221 0.106 0.4846 0.156 0.1673 0.051 0.3322 0.1 0.5003 0.141 0.2734 0.066 0.5384 0.132 0.8134 0.172 0.061 0.008 0.125 0.007 0.187 0.015 0.239 0.03 0.481 0.053 0.719 0.063 0.258 0.011 0.511 0.011 0.766 0 0.239-0.01 0.48-0.033 0.719-0.063 0.052-0.006 0.105-0.008 0.157-0.015 0.041-0.006 0.084-0.01 0.125-0.016 0.244-0.038 0.492-0.098 0.735-0.156 0.167-0.041 0.333-0.091 0.5-0.141 0.159-0.048 0.313-0.1 0.469-0.156 0.154-0.057 0.303-0.124 0.453-0.188 0.078-0.033 0.158-0.059 0.235-0.094 0.234-0.108 0.467-0.218 0.688-0.344 0.022-0.012 0.04-0.034 0.062-0.047 0.195-0.112 0.38-0.234 0.563-0.359 0.096-0.066 0.188-0.134 0.281-0.204 0.045-0.033 0.097-0.059 0.141-0.093 0.172-0.134 0.339-0.278 0.5-0.422 0.058-0.052 0.116-0.104 0.172-0.157 0.043-0.04 0.083-0.083 0.125-0.125 0.137-0.134 0.278-0.263 0.407-0.406 0.079-0.089 0.142-0.19 0.219-0.282 0.113-0.137 0.222-0.277 0.328-0.422 0.019-0.026 0.043-0.051 0.063-0.078 0.026-0.037 0.052-0.072 0.078-0.109 0.119-0.173 0.236-0.35 0.344-0.532 0.015-0.026 0.031-0.052 0.047-0.078 0.097-0.169 0.194-0.341 0.281-0.516 0.01-0.02 0.021-0.042 0.031-0.063 0.125-0.257 0.229-0.529 0.328-0.797 0.084-0.225 0.153-0.456 0.219-0.688 0.008-0.027 0.024-0.051 0.032-0.078 0.003-0.011 0.012-0.02 0.015-0.031 0.041-0.151 0.077-0.3 0.11-0.453 0.038-0.178 0.066-0.354 0.093-0.532 0.005-0.031 0.012-0.063 0.016-0.094 0.021-0.144 0.034-0.292 0.047-0.438 0.013-0.145 0.025-0.293 0.031-0.437 0.001-0.026-0.001-0.052 0-0.078 0.008-0.215 0.008-0.429 0-0.641-0.002-0.053 0.003-0.105 0-0.157-0.001-0.031-0.013-0.062-0.015-0.094-0.013-0.201-0.036-0.394-0.063-0.594-0.009-0.068-0.005-0.135-0.016-0.203-0.043-0.279-0.1-0.566-0.171-0.844-0.005-0.0162-0.012-0.0308-0.016-0.0469-0.059-0.2259-0.126-0.4481-0.203-0.6723-0.002-0.0045 0.001-0.0111 0-0.0156-0.022-0.0631-0.039-0.1247-0.063-0.1876-0.058-0.1557-0.137-0.303-0.203-0.4534-0.009-0.0192-0.007-0.0433-0.016-0.0625-0.005-0.0108-0.011-0.0205-0.015-0.0313-0.063-0.1391-0.135-0.2721-0.204-0.4065-0.089-0.1749-0.181-0.3469-0.281-0.5159-0.133-0.2227-0.271-0.4455-0.422-0.6566-0.004-0.0059-0.011-0.0097-0.016-0.0156-0.007-0.0092-0.009-0.022-0.015-0.0313-0.148-0.2029-0.32-0.3878-0.485-0.5784-0.174-0.201-0.355-0.3926-0.547-0.5784-0.185-0.1792-0.377-0.3522-0.579-0.5159-0.286-0.2322-0.573-0.4588-0.891-0.6566 0 0-0.015 0.0155-0.015 0.0156-0.081-0.0504-0.159-0.1055-0.251-0.1407-0.003-0.0022-0.011 0.0022-0.015 0-0.043-0.0246-0.082-0.0542-0.125-0.0782l-0.016 0.0469c-0.736-0.1921-1.511 0.1946-1.782 0.9224-0.243 0.6512 0.02 1.352 0.563 1.7353l-0.016 0.0313c0.107 0.0646 0.21 0.132 0.313 0.2032 0.065 0.0457 0.124 0.0927 0.187 0.1407 0.041 0.0306 0.085 0.0622 0.125 0.0938 0.107 0.0856 0.213 0.1737 0.313 0.2658 0.028 0.0249 0.051 0.0527 0.078 0.0781 0.095 0.0908 0.193 0.1695 0.282 0.2658 0.051 0.0549 0.091 0.115 0.14 0.172 0.029 0.033 0.067 0.0602 0.094 0.0938 0.088 0.1059 0.17 0.2312 0.25 0.3439 0.005 0.0059 0.012 0.0097 0.016 0.0156 0.096 0.1365 0.18 0.2761 0.266 0.4221 0.056 0.0968 0.12 0.1962 0.172 0.2971 0.045 0.089 0.084 0.1746 0.125 0.2657 0.018 0.0411 0.029 0.0834 0.047 0.1251 0.056 0.1337 0.109 0.2689 0.156 0.4065 0.047 0.138 0.088 0.281 0.125 0.422 0.051 0.196 0.094 0.382 0.125 0.579s0.052 0.397 0.063 0.594c0.01 0.196 0.008 0.399 0 0.594-0.005 0.101-0.006 0.195-0.016 0.297-0.009 0.094-0.018 0.188-0.031 0.281-0.002 0.01 0.001 0.021 0 0.031-0.025 0.171-0.07 0.333-0.11 0.501-0.017 0.071-0.027 0.147-0.047 0.218-0.014 0.052-0.031 0.105-0.046 0.157-0.031 0.101-0.058 0.197-0.094 0.297-0.023 0.064-0.053 0.124-0.078 0.187-0.054 0.133-0.111 0.265-0.172 0.391-0.014 0.027-0.034 0.052-0.047 0.078-0.08 0.158-0.159 0.321-0.25 0.469-0.07 0.112-0.143 0.221-0.219 0.329-0.02 0.027-0.043 0.051-0.063 0.078-0.064 0.086-0.135 0.167-0.203 0.25-0.056 0.067-0.114 0.139-0.172 0.203-0.066 0.074-0.133 0.149-0.203 0.219s-0.146 0.137-0.219 0.203c-0.072 0.066-0.143 0.126-0.219 0.188-0.103 0.085-0.204 0.173-0.313 0.25-0.04 0.029-0.084 0.051-0.125 0.078-0.118 0.081-0.235 0.163-0.359 0.235-0.034 0.019-0.075 0.028-0.11 0.047-0.134 0.074-0.267 0.155-0.406 0.219-0.062 0.028-0.125 0.052-0.188 0.078-0.103 0.043-0.207 0.072-0.312 0.109-0.011 0.004-0.021 0.012-0.032 0.016-0.15 0.052-0.299 0.1-0.453 0.14-0.17 0.045-0.33 0.081-0.5 0.11-0.036 0.006-0.074 0.01-0.11 0.016-0.098 0.014-0.198 0.021-0.297 0.031-0.287 0.029-0.568 0.044-0.86 0.031-0.021-0.001-0.041 0.001-0.062 0-0.067-0.004-0.136-0.01-0.203-0.016-0.132-0.011-0.261-0.026-0.391-0.046-0.16-0.025-0.325-0.056-0.485-0.094-0.036-0.009-0.073-0.022-0.109-0.032-0.037-0.009-0.073-0.02-0.11-0.031-0.157-0.044-0.316-0.099-0.4688-0.156-0.0111-0.004-0.0202-0.012-0.0312-0.016-0.1713-0.065-0.3386-0.124-0.5003-0.203-0.0273-0.013-0.0512-0.033-0.0782-0.047-0.1577-0.079-0.321-0.158-0.469-0.25-0.0121-0.008-0.0192-0.024-0.0312-0.031-0.1624-0.103-0.3191-0.213-0.469-0.329-0.0943-0.073-0.1923-0.14-0.2814-0.218-0.0359-0.032-0.0743-0.062-0.1095-0.094-0.0649-0.06-0.1256-0.126-0.1876-0.188-0.0621-0.062-0.128-0.123-0.1876-0.187-0.1126-0.124-0.2111-0.26-0.3126-0.391-0.1161-0.15-0.226-0.307-0.3283-0.469-0.0064-0.01-0.0094-0.021-0.0157-0.032-0.1029-0.165-0.1938-0.338-0.2814-0.515-0.0254-0.052-0.0541-0.104-0.0781-0.157-0.04-0.087-0.0738-0.176-0.1095-0.266-0.0192-0.047-0.0444-0.092-0.0625-0.14-0.0076-0.021-0.0083-0.042-0.0156-0.063-0.0205-0.057-0.0438-0.114-0.0626-0.172-0.04-0.123-0.093-0.25-0.125-0.375-0.0343-0.134-0.0532-0.27-0.0782-0.406-0.0237-0.13-0.0476-0.262-0.0625-0.391-0.0116-0.1-0.0092-0.198-0.0157-0.297-0.007-0.109-0.0145-0.219-0.0156-0.329-0.0014-0.169 0.0027-0.347 0.0156-0.515 0.013-0.169 0.0356-0.335 0.0626-0.501 0.0303-0.186 0.0618-0.365 0.1094-0.547 0.0081-0.031 0.0226-0.063 0.0313-0.094 0.0395-0.142 0.0909-0.283 0.1407-0.4218 0.0088-0.0247 0.0064-0.0535 0.0156-0.0782 0.0243-0.0653 0.0518-0.1236 0.0782-0.1876 0.024-0.0583 0.0523-0.1145 0.0781-0.172 0.0584-0.1294 0.1212-0.2519 0.1876-0.3752 0.0592-0.11 0.1217-0.222 0.1876-0.3283 0.0569-0.0917 0.1258-0.177 0.1876-0.2657 0.0581-0.0825 0.1102-0.1713 0.172-0.2502 0.0435-0.0561 0.0795-0.1173 0.1251-0.1719 0.0237-0.0281 0.0539-0.0506 0.0781-0.0782 0.0847-0.0967 0.1755-0.1909 0.2658-0.2814 0.1161-0.1163 0.2349-0.2224 0.3596-0.3283 0.0791-0.0673 0.1521-0.1402 0.2345-0.2032 0.0204-0.0158 0.0418-0.0314 0.0625-0.0469 0.0934-0.0696 0.1843-0.1393 0.2814-0.2033 0.0252-0.0167 0.0526-0.0304 0.0782-0.0469 0.0417-0.0265 0.0827-0.0525 0.125-0.0781 0.6329-0.5223 0.6244-1.0188 0.5628-1.7666-0.2703-0.7253-1.0487-1.1099-1.7822-0.9224-0.0207-0.0879-0.1037 0.0208-0.1563 0.0313z"/>
 </g>
</svg>
